<svg xmlns="http://www.w3.org/2000/svg" width="61.916" height="68.347" viewBox="0 0 61.916 68.347">
  <path id="brand" d="M18898.988,7558.349h0a2.046,2.046,0,0,0,.063-.394,4.889,4.889,0,0,0-.062-1.129,5.4,5.4,0,0,0-1.2-2.1h0v0c-.26-.34-.529-.693-.766-1.056a21.158,21.158,0,0,0-3.855-3.264c-.99-.716-2.02-1.413-2.977-2.016a28.94,28.94,0,0,0-2.793-1.576c-.295-.143-.562-.268-.82-.388l-.07-.034c-2.549-1.193-3.408-1.6-7.535-6.163a9.842,9.842,0,0,1-1.125-1.518,10.091,10.091,0,0,1-.785-1.612,11.952,11.952,0,0,1-.5-1.659,13.72,13.72,0,0,1-.262-1.657,18.971,18.971,0,0,1-.031-3.125c.064-.963.18-1.84.271-2.544v-.007l0,0v0a6.833,6.833,0,0,0,.121-1.788.322.322,0,0,0-.129-.191.391.391,0,0,0-.23-.06,2.7,2.7,0,0,0-1.141.427,15.056,15.056,0,0,0-1.428.94c-.883.643-1.65,1.293-1.736,1.365v0c0-.156,0-1.58.117-3.4.078-1.126.184-2.184.316-3.143a22.36,22.36,0,0,1,.641-3.111,13.535,13.535,0,0,1,.658-1.754c.244-.542.527-1.1.867-1.7.619-1.1,1.283-2.115,1.818-2.929l0,0h0c.668-1.014,1.148-1.747,1.088-1.968-.023-.081-.111-.122-.262-.122a3.1,3.1,0,0,0-.857.188c-.307.1-.67.24-1.084.414-.674.284-1.262.57-1.324.6h0a3.733,3.733,0,0,1,.064-.422,10.368,10.368,0,0,1,.324-1.21,16.656,16.656,0,0,1,.777-1.913,22.747,22.747,0,0,1,1.424-2.53,18.978,18.978,0,0,1,1.705-2.172,18.759,18.759,0,0,1,1.809-1.735,19.119,19.119,0,0,1,3.512-2.342c.5-.256,1-.491,1.5-.7.4-.165.807-.314,1.2-.442a10.6,10.6,0,0,1,1.082-.3h0a3.177,3.177,0,0,0-.428-.337,5.351,5.351,0,0,0-1.252-.622,9.132,9.132,0,0,0-2.508-.26c-.639,0-1.133.028-1.139.029h0c.064-.043.406-.274.961-.613s1.457-.872,2.545-1.434a35.868,35.868,0,0,1,3.615-1.634,24.023,24.023,0,0,1,4.172-1.217,16.893,16.893,0,0,1,3.109-.279,20.52,20.52,0,0,1,3.1.243,23.07,23.07,0,0,1,2.523.534c.734.2,1.322.4,1.689.532.387.141.607.235.631.246h0c.066-.013,1.637-.337,2.988-.71a11.262,11.262,0,0,0,1.73-.752l.006,0h0c.682-.335,1.453-.715,2.314-1.042a11.267,11.267,0,0,1,2.8-.705,11.627,11.627,0,0,1,1.221-.07,6.293,6.293,0,0,1,1.309.122,2.886,2.886,0,0,1,.852.313,1.369,1.369,0,0,1,.467.427.852.852,0,0,1,.139.46,2.368,2.368,0,0,1-.346.958c-.2.376-.453.774-.674,1.125l0,0h0v0a6.062,6.062,0,0,0-.463.793,5.819,5.819,0,0,0,.023,1.4v0h0v0a11.432,11.432,0,0,1-.023,3,12.849,12.849,0,0,1-.678,1.857c-.189.42-.354.751-.437.911l0,.007h0a.028.028,0,0,0-.008.027c.008.052.121.173.807.408a1.645,1.645,0,0,0,.529.082,2.632,2.632,0,0,0,.619-.081,4.17,4.17,0,0,0,.549-.177,4.068,4.068,0,0,0,.535-.259l.229-.079-.172.064h0a3.9,3.9,0,0,1,.307.636,6.85,6.85,0,0,1,.256.787,8.171,8.171,0,0,1,.209,1.091,12.443,12.443,0,0,1,.092,1.348c.008.411.006.866-.012,1.354-.021.729-.064,1.3-.076,1.456,0,0,0,.005,0,.005l.861-.732a0,0,0,0,1,0,0v0c.012-.155.051-.715.07-1.413.016-.47.02-.909.012-1.307-.012-.5-.039-.93-.084-1.288a6.752,6.752,0,0,0-.184-.937,4.583,4.583,0,0,0-.236-.677,2.808,2.808,0,0,0-.35-.624l-.684.24h0l.67-.255h0l0,0,0,0,.006.006,2.42-.849h0l.852-.3-.852.3a1.355,1.355,0,0,1,.215.378,2.906,2.906,0,0,1,.148.486,4.637,4.637,0,0,1,.1.727c.039.616,0,1.639-.041,2.388-.045.824-.1,1.494-.1,1.5l.863-.726h0c.006-.105.041-.666.063-1.341s.043-1.6,0-2.187a4.506,4.506,0,0,0-.229-1.173,1.462,1.462,0,0,0-.172-.345l3.313-1.161-.754.286h0c.008.038.053.239.1.525a7.712,7.712,0,0,1,.1,1.179c0,.814-.109,2.14-.123,2.288v0l.791-.667v0c.01-.2.063-1.21.063-1.9a14.677,14.677,0,0,0-.141-1.724l7.717-2.706-5.359,4.468.693-.58a12.427,12.427,0,0,0,.154-1.364,2.047,2.047,0,0,0-.1-.588c-.047-.141-.094-.242-.105-.27h0l-.691.261h0a1.415,1.415,0,0,1,.117.259,1.894,1.894,0,0,1,.117.641,13.87,13.87,0,0,1-.227,1.683l.049-.042-.049.042-9.426,7.859.2,1.029c.209,1.066.473,2.423.6,3.052.109.56,1.527,4.52,2.82,8.04.662,1.809,1.361,3.695,1.92,5.175.58,1.535.955,2.494,1.057,2.7a1.816,1.816,0,0,1,.117.622,5.939,5.939,0,0,1-.041,1.013,8.1,8.1,0,0,1-.25,1.242,7.272,7.272,0,0,1-.51,1.31,5.357,5.357,0,0,1-1.355,1.741,4.366,4.366,0,0,1-.988.62,4.714,4.714,0,0,1-1.227.362,6.614,6.614,0,0,1-1.008.078,7,7,0,0,1-1.223-.11,8.087,8.087,0,0,1-1.168-.3,9.7,9.7,0,0,1-1.1-.45c-.336-.161-.684-.348-1.027-.556a16.753,16.753,0,0,1-1.8-1.262c-.539-.428-1.01-.843-1.389-1.176l0,0h0c-.2-.178-.377-.333-.531-.463a15.468,15.468,0,0,1-2.727-3.99v0h0v0c-.432-.78-.838-1.517-1.207-2.045-.838-1.2-3.256-1.894-4.557-2.266h0l-.008,0c-.344-.1-.617-.177-.752-.235a15.508,15.508,0,0,1-1.943-1.405l0,0h0a11.39,11.39,0,0,0-1.5-1.093.6.6,0,0,0-.16-.018,1.564,1.564,0,0,0-.613.143,2.373,2.373,0,0,0-.789.576,3.863,3.863,0,0,0-.738,1.228,7.844,7.844,0,0,0-.465,2.1,6.5,6.5,0,0,0-.008,1.035,9.115,9.115,0,0,0,.152,1.1,15.688,15.688,0,0,0,.707,2.377c.625,1.657,1.5,3.431,2.43,5.308h0l.006.009c.826,1.671,1.682,3.4,2.4,5.147a28.149,28.149,0,0,1,1.293,3.792,17.323,17.323,0,0,1,.514,3.125c.033.472.043.937.035,1.421-.008.448-.035.9-.078,1.387-.078.884-.209,1.776-.383,2.844a7.258,7.258,0,0,1-.387,1.43,9.027,9.027,0,0,1-.629,1.3,11.868,11.868,0,0,1-1.613,2.133,14.909,14.909,0,0,1-1.5,1.389c-.375.3-.629.476-.656.495Zm8.967-51.566a11.61,11.61,0,0,0,.8,1.034,9.987,9.987,0,0,0,.859.884,5.916,5.916,0,0,0,1.037.766,11.105,11.105,0,0,1,1.123.734,13.373,13.373,0,0,1,1.07.876,8.453,8.453,0,0,1,.848.876,2.479,2.479,0,0,1,.453.735,3.168,3.168,0,0,0,.238.468,4.533,4.533,0,0,1,.371.753,8.455,8.455,0,0,1,.287,1.167c.057.317.078.533.078.535a4.261,4.261,0,0,0,.4-.963,5.217,5.217,0,0,0,.2-1.079,5.352,5.352,0,0,0-.066-1.368,5.475,5.475,0,0,0-3.42-4.224,6.791,6.791,0,0,0-1.816-.492,5.438,5.438,0,0,1-.766-.152c-.734-.214-1.662-.536-1.7-.55Z" transform="translate(-18872.004 -7490.001)" fill="#f94c76"/>
</svg>
